<svg width="28" height="29" viewBox="0 0 28 29" fill="none" xmlns="http://www.w3.org/2000/svg">
<path d="M13.9997 26.2181C7.55617 26.2181 2.33301 20.9949 2.33301 14.5514C2.33301 8.10793 7.55617 2.88477 13.9997 2.88477C20.4432 2.88477 25.6663 8.10793 25.6663 14.5514C25.6593 20.9914 20.4397 26.2111 14.0008 26.2181H13.9997ZM13.9997 5.2181C8.84534 5.2181 4.66634 9.3971 4.66634 14.5514C4.66634 19.7058 8.84534 23.8848 13.9997 23.8848C19.154 23.8848 23.333 19.7058 23.333 14.5514C23.3272 9.39943 19.1517 5.22393 13.9997 5.2181ZM13.1095 18.8401L19.5262 11.8401C19.7163 11.6336 19.833 11.3559 19.833 11.0514C19.833 10.4074 19.3103 9.88477 18.6663 9.88477C18.3268 9.88477 18.02 10.0306 17.8065 10.2628L17.8053 10.2639L12.2485 16.3259L10.1917 14.0824C9.97817 13.8491 9.67134 13.7044 9.33184 13.7044C8.68784 13.7044 8.16517 14.2271 8.16517 14.8711C8.16517 15.1756 8.28184 15.4521 8.47201 15.6598L8.47084 15.6586L11.3875 18.8401C11.601 19.0734 11.9078 19.2181 12.2473 19.2181C12.5868 19.2181 12.8937 19.0723 13.1072 18.8401L13.1083 18.8389L13.1095 18.8401Z" fill="#13A958"/>
</svg>
