<svg width="420" height="512" viewBox="0 0 420 512" fill="none" xmlns="http://www.w3.org/2000/svg">
<path d="M250 452C244.48 452 240 456.48 240 462C240 467.52 244.48 472 250 472C255.52 472 260 467.52 260 462C260 456.48 255.52 452 250 452Z" fill="#13A958"/>
<path d="M390 46H360V30C360 13.458 346.542 0 330 0H90C73.458 0 60 13.458 60 30V46H30C13.458 46 0 59.458 0 76C0 141.057 30.442 188.867 79.828 202.178C96.758 239.443 123.526 271.122 157.502 294.013C165.328 299.286 170 308.313 170 318.16V373.259C163.145 375.017 156.856 378.581 151.719 383.719C144.162 391.277 140 401.32 140 412H130C113.458 412 100 425.458 100 442V502C100 507.523 104.478 512 110 512H310C315.522 512 320 507.523 320 502V442C320 425.458 306.542 412 290 412H280C280 393.396 267.233 377.717 250 373.266V318.21C250 308.331 254.675 299.287 262.508 294.014C296.487 271.121 323.255 239.441 340.184 202.175C389.563 188.859 420 141.052 420 76C420 59.458 406.542 46 390 46ZM20 76C20 70.486 24.486 66 30 66H60V110.7C60 133.495 63.453 155.817 70.27 177.314C38.447 161.551 20 125.146 20 76ZM290 432C295.514 432 300 436.486 300 442V492H120V442C120 436.486 124.486 432 130 432H290ZM340 110.7C340 138.016 334.562 164.596 323.834 189.7C308.574 225.417 283.504 255.752 251.336 277.425C237.976 286.418 230 301.665 230 318.21V382C230 387.523 234.478 392 240 392C251.028 392 260 400.972 260 412H160C160 406.662 162.082 401.641 165.861 397.861C169.455 394.267 174.172 392.209 179.216 392.015C179.475 392.035 179.736 392.045 179.999 392.045C185.521 392.045 189.999 387.523 189.999 382V318.16C189.999 301.65 182.028 286.423 168.677 277.427C136.506 255.753 111.436 225.418 96.174 189.698C85.442 164.603 80 138.024 80 110.7V30C80 24.486 84.486 20 90 20H330C335.514 20 340 24.486 340 30V110.7ZM349.734 177.312C356.548 155.81 360 133.489 360 110.7V66H390C395.514 66 400 70.486 400 76C400 125.143 381.555 161.547 349.734 177.312Z" fill="#13A958"/>
<path d="M289.139 118.16C288.563 116.385 287.501 114.807 286.075 113.604C284.648 112.401 282.913 111.622 281.066 111.354L237.91 105.09L218.607 65.9751C217.781 64.3015 216.504 62.8923 214.919 61.907C213.334 60.9216 211.505 60.3994 209.639 60.3994C207.773 60.3994 205.944 60.9216 204.359 61.907C202.774 62.8923 201.497 64.3015 200.671 65.9751L181.368 105.09L138.213 111.354C136.366 111.622 134.632 112.402 133.205 113.605C131.778 114.808 130.717 116.386 130.14 118.16C129.563 119.935 129.495 121.836 129.942 123.647C130.389 125.459 131.334 127.109 132.67 128.412L163.904 158.852L156.532 201.839C156.217 203.678 156.422 205.569 157.126 207.297C157.829 209.025 159.001 210.523 160.511 211.619C162.02 212.716 163.807 213.369 165.668 213.503C167.529 213.638 169.39 213.249 171.042 212.381L209.64 192.088L248.247 212.381C249.899 213.25 251.76 213.638 253.622 213.504C255.483 213.369 257.269 212.717 258.779 211.619C260.289 210.522 261.461 209.025 262.164 207.296C262.866 205.567 263.071 203.676 262.755 201.837L255.375 158.851L286.608 128.412C287.944 127.11 288.89 125.459 289.337 123.647C289.784 121.836 289.716 119.935 289.139 118.16ZM237.65 148.198C236.489 149.33 235.62 150.728 235.119 152.27C234.618 153.812 234.499 155.454 234.774 157.052L239.615 185.249L214.292 171.938C212.857 171.184 211.26 170.79 209.639 170.79C208.018 170.79 206.421 171.184 204.986 171.939L179.671 185.249L184.507 157.05C184.781 155.452 184.662 153.811 184.161 152.269C183.66 150.727 182.791 149.33 181.63 148.198L161.146 128.234L189.447 124.126C191.052 123.893 192.576 123.273 193.888 122.32C195.2 121.367 196.26 120.109 196.978 118.655L209.64 92.9961L222.302 118.655C223.02 120.109 224.08 121.367 225.392 122.32C226.704 123.273 228.228 123.893 229.833 124.126L258.135 128.234L237.65 148.198ZM210 452H170C164.478 452 160 456.477 160 462C160 467.523 164.478 472 170 472H210C215.522 472 220 467.523 220 462C220 456.477 215.522 452 210 452ZM364.01 482H369.585C366.745 481.437 364.835 481.381 364.01 482Z" fill="#13A958"/>
</svg>
