<svg width="24" height="25" viewBox="0 0 24 25" fill="none" xmlns="http://www.w3.org/2000/svg">
<path d="M10.0607 23.5512L7.6637 21.6352C7.5957 21.6002 7.5147 21.5792 7.4297 21.5792C7.4027 21.5792 7.3757 21.5812 7.3497 21.5852H7.3527L4.7047 21.7352C4.6647 21.7372 4.6167 21.7392 4.5697 21.7392C4.5227 21.7392 4.4747 21.7382 4.4277 21.7352H4.4337L6.1887 16.2692C6.4287 16.2882 6.6337 16.4222 6.7487 16.6172L6.7507 16.6202C7.0517 17.1522 7.3927 17.6232 7.7537 18.1852C7.7907 18.2672 7.8707 18.3232 7.9647 18.3232C7.9857 18.3232 8.0067 18.3202 8.0257 18.3152H8.0237C8.6557 18.2352 9.2977 18.1552 9.9297 18.0942C9.9407 18.0932 9.9547 18.0932 9.9677 18.0932C10.0857 18.0932 10.1967 18.1232 10.2937 18.1762L10.2897 18.1742C10.6707 18.4052 11.0317 18.6562 11.4127 18.8862C11.5527 18.9662 11.5837 19.0362 11.5327 19.1872C11.0817 20.5712 10.6397 21.9452 10.1987 23.3302V23.5512H10.0607ZM13.9727 23.5512L16.3897 21.5852C16.4227 21.5722 16.4607 21.5652 16.4997 21.5652C16.5387 21.5652 16.5777 21.5722 16.6117 21.5862L16.6097 21.5852L19.6087 21.7452L17.8537 16.2692C17.6147 16.2912 17.4117 16.4252 17.2937 16.6172L17.2917 16.6202C16.9407 17.1822 16.6097 17.6632 16.2887 18.1852C16.2527 18.2672 16.1717 18.3232 16.0777 18.3232C16.0567 18.3232 16.0357 18.3202 16.0157 18.3152H16.0177L14.1617 18.0842C14.1347 18.0792 14.1027 18.0772 14.0707 18.0772C13.9387 18.0772 13.8167 18.1212 13.7187 18.1952L13.7197 18.1942C13.3587 18.4352 12.9977 18.6652 12.6267 18.8862C12.5967 18.8972 12.5717 18.9142 12.5507 18.9352C12.5127 18.9732 12.4897 19.0262 12.4897 19.0842C12.4897 19.0902 12.4897 19.0962 12.4907 19.1022V19.1012C12.4937 19.1332 12.5027 19.1632 12.5177 19.1882L12.5167 19.1872C12.8177 20.1002 13.1087 21.0232 13.3997 21.9352C13.5707 22.4772 13.7307 23.0182 13.8907 23.5502L13.9727 23.5512ZM10.2407 16.7402C10.3577 16.7762 10.4537 16.8132 10.5467 16.8562L10.5317 16.8502L11.8557 17.7022C11.8947 17.7342 11.9457 17.7542 12.0007 17.7542C12.0557 17.7542 12.1067 17.7342 12.1467 17.7022C12.5777 17.4112 13.0097 17.1302 13.4507 16.8702C13.5447 16.8132 13.6577 16.7792 13.7797 16.7792C13.7907 16.7792 13.8027 16.7792 13.8137 16.7802H13.8117C14.327 16.8269 14.8387 16.8869 15.3467 16.9602C15.3667 16.9662 15.3897 16.9702 15.4137 16.9702C15.5057 16.9702 15.5867 16.9182 15.6267 16.8422L15.6277 16.8412C15.8887 16.3902 16.1697 15.9382 16.4497 15.4972C16.5137 15.4102 16.5987 15.3422 16.6967 15.2982L16.7007 15.2962C17.1817 15.1162 17.6937 14.9552 18.1857 14.7852C18.2917 14.7702 18.3717 14.6822 18.3767 14.5752C18.4267 14.0132 18.4767 13.5322 18.5467 13.0102C18.5677 12.8812 18.6257 12.7682 18.7077 12.6792C19.0687 12.3082 19.4297 11.9472 19.8107 11.5862C19.8657 11.5452 19.9017 11.4812 19.9017 11.4082C19.9017 11.3672 19.8907 11.3282 19.8707 11.2952L19.8717 11.2962C19.6907 10.8352 19.5107 10.3232 19.3497 9.8322C19.3327 9.7782 19.3237 9.7162 19.3237 9.6512C19.3237 9.5862 19.3337 9.5242 19.3507 9.4662L19.3497 9.4702C19.5207 8.9992 19.7007 8.4872 19.8817 7.9962C19.8977 7.9682 19.9067 7.9352 19.9067 7.8992C19.9067 7.8322 19.8737 7.7722 19.8217 7.7362H19.8207C19.4397 7.3652 19.0587 6.9942 18.6877 6.6132C18.6237 6.5522 18.5777 6.4742 18.5587 6.3852L18.5577 6.3822C18.491 5.8402 18.431 5.29853 18.3777 4.7572C18.3777 4.7532 18.3777 4.7492 18.3777 4.7452C18.3777 4.6342 18.2947 4.5422 18.1877 4.5272C17.7057 4.3662 17.1937 4.1962 16.7017 4.0152C16.5987 3.9722 16.5127 3.9032 16.4517 3.8162L16.4507 3.8142C16.1597 3.3732 15.8887 2.9212 15.6187 2.4702C15.5847 2.3902 15.5067 2.3352 15.4157 2.3352C15.3987 2.3352 15.3827 2.3372 15.3667 2.3402C14.8047 2.4102 14.3247 2.4802 13.8027 2.5312C13.7867 2.5332 13.7667 2.5342 13.7477 2.5342C13.6497 2.5342 13.5577 2.5072 13.4797 2.4602L13.4817 2.4612C13.0307 2.1902 12.5887 1.8992 12.1377 1.6082C12.1007 1.5752 12.0517 1.5542 11.9977 1.5542C11.9437 1.5542 11.8947 1.5742 11.8567 1.6082C11.4257 1.8992 10.9937 2.1802 10.5427 2.4412C10.4667 2.4792 10.3767 2.5012 10.2817 2.5012C10.2427 2.5012 10.2047 2.4972 10.1677 2.4902L10.1717 2.4912C9.6607 2.4512 9.1587 2.3812 8.6567 2.3112C8.6407 2.3082 8.6227 2.3062 8.6047 2.3062C8.4987 2.3062 8.4077 2.3692 8.3667 2.4602L8.3657 2.4622C8.1047 2.9032 7.8337 3.3352 7.5527 3.7662C7.4807 3.8652 7.3857 3.9442 7.2767 3.9952L7.2727 3.9972C6.7917 4.1772 6.2897 4.3382 5.7877 4.5092C5.6907 4.5242 5.6177 4.6072 5.6177 4.7072C5.6177 4.7082 5.6177 4.7092 5.6177 4.7102C5.5677 5.2522 5.4577 5.7432 5.4577 6.2552C5.4527 6.4022 5.3877 6.5332 5.2877 6.6262L4.1937 7.6592C4.1347 7.7032 4.0977 7.7732 4.0977 7.8512C4.0977 7.8912 4.1077 7.9282 4.1247 7.9612L4.1237 7.9602C4.3037 8.4312 4.4847 8.9432 4.6557 9.4342C4.6697 9.4842 4.6777 9.5412 4.6777 9.5992C4.6777 9.6572 4.6697 9.7152 4.6547 9.7692L4.6557 9.7652C4.4847 10.2362 4.3047 10.7482 4.1237 11.2392C4.1057 11.2702 4.0957 11.3072 4.0957 11.3472C4.0957 11.4232 4.1347 11.4902 4.1927 11.5302C4.5737 11.9012 4.9557 12.2722 5.3267 12.6532C5.3817 12.7102 5.4227 12.7812 5.4457 12.8602L5.4467 12.8642C5.5257 13.3242 5.5867 13.8792 5.6157 14.4432L5.6167 14.4792C5.6127 14.4952 5.6107 14.5132 5.6107 14.5322C5.6107 14.6142 5.6537 14.6862 5.7177 14.7272L5.7187 14.7282C5.7437 14.7442 5.7737 14.7562 5.8057 14.7612C6.2467 14.9212 6.7797 15.0822 7.2507 15.2622C7.3827 15.3142 7.4917 15.4012 7.5707 15.5112L7.5717 15.5132C7.8427 15.9342 8.1037 16.3662 8.3637 16.7972C8.3977 16.8852 8.4817 16.9462 8.5797 16.9462C8.6027 16.9462 8.6247 16.9432 8.6457 16.9362H8.6437L10.2287 16.7452L10.2407 16.7402ZM6.8487 7.4732C7.7117 5.4402 9.6907 4.0412 11.9967 4.0412C15.0767 4.0412 17.5737 6.5382 17.5737 9.6182C17.5737 12.6982 15.0767 15.1952 11.9967 15.1952C8.9167 15.1952 6.4197 12.6982 6.4197 9.6182C6.4197 9.6152 6.4197 9.6122 6.4197 9.6092C6.4207 8.8382 6.5787 8.1042 6.8627 7.4372L6.8487 7.4732ZM15.9527 7.9722C15.2897 6.4002 13.7617 5.3162 11.9797 5.3162C9.6057 5.3162 7.6807 7.2412 7.6807 9.6152C7.6807 11.9892 9.6057 13.9142 11.9797 13.9142C14.3517 13.9142 16.2757 11.9922 16.2787 9.6202C16.2787 9.6172 16.2787 9.6132 16.2787 9.6102C16.2787 9.0192 16.1587 8.4562 15.9417 7.9452L15.9527 7.9722Z" fill="#13A958"/>
</svg>
